<svg xmlns="http://www.w3.org/2000/svg" xmlns:xlink="http://www.w3.org/1999/xlink" width="500" zoomAndPan="magnify" viewBox="0 0 375 374.999991" height="500" preserveAspectRatio="xMidYMid meet" version="1.0"><defs><g/><clipPath id="3237d500f0"><path d="M 37.5 29.894531 L 335.566406 29.894531 L 335.566406 327.964844 L 37.5 327.964844 Z M 37.5 29.894531 " clip-rule="nonzero"/></clipPath><clipPath id="4ca369c033"><path d="M 186.535156 29.894531 C 104.226562 29.894531 37.5 96.621094 37.5 178.929688 C 37.5 261.238281 104.226562 327.964844 186.535156 327.964844 C 268.84375 327.964844 335.566406 261.238281 335.566406 178.929688 C 335.566406 96.621094 268.84375 29.894531 186.535156 29.894531 Z M 186.535156 29.894531 " clip-rule="nonzero"/></clipPath><clipPath id="603dca9f80"><path d="M 86 167 L 122.523438 167 L 122.523438 208.628906 L 86 208.628906 Z M 86 167 " clip-rule="nonzero"/></clipPath><clipPath id="ac67d83d42"><path d="M 47.523438 167 L 84 167 L 84 208.628906 L 47.523438 208.628906 Z M 47.523438 167 " clip-rule="nonzero"/></clipPath></defs><rect x="-37.5" width="450" fill="#ffffff" y="-37.499999" height="449.999989" fill-opacity="1"/><rect x="-37.5" width="450" fill="#ffffff" y="-37.499999" height="449.999989" fill-opacity="1"/><g clip-path="url(#3237d500f0)"><g clip-path="url(#4ca369c033)"><path fill="#f2e7e7" d="M 37.5 29.894531 L 335.566406 29.894531 L 335.566406 327.964844 L 37.5 327.964844 Z M 37.5 29.894531 " fill-opacity="1" fill-rule="nonzero"/></g></g><g clip-path="url(#603dca9f80)"><path fill="#a0a8ff" d="M 121.25 168.660156 C 120.492188 167.898438 119.445312 167.5625 118.402344 167.738281 C 117.34375 167.914062 116.457031 168.550781 115.980469 169.507812 L 111.152344 179.164062 C 110.867188 179.75 110.480469 180.261719 109.949219 180.8125 C 109.859375 180.917969 109.789062 181.023438 109.699219 181.128906 C 107.4375 179.324219 104.21875 179.007812 101.511719 180.527344 C 99.617188 182.121094 96.964844 183.585938 93.53125 184.933594 C 91.394531 186.117188 89.941406 188.273438 89.640625 190.699219 L 88.457031 200.179688 L 86.652344 200.179688 L 86.652344 208.722656 L 107.152344 208.722656 L 107.152344 200.179688 L 106.480469 200.179688 L 116.226562 189.054688 C 116.953125 188.222656 117.484375 187.265625 117.800781 186.207031 L 122.082031 171.929688 C 122.417969 170.761719 122.101562 169.507812 121.25 168.660156 Z M 105.4375 207.007812 L 88.351562 207.007812 L 88.351562 201.878906 L 105.4375 201.878906 Z M 120.4375 171.433594 L 116.15625 185.691406 C 115.910156 186.523438 115.503906 187.265625 114.9375 187.902344 L 104.21875 200.164062 L 90.207031 200.164062 L 91.355469 190.894531 C 91.585938 189 92.71875 187.335938 94.277344 186.453125 C 97.777344 185.089844 100.589844 183.515625 102.5 181.890625 C 104.480469 180.792969 106.941406 181.039062 108.675781 182.4375 C 106.039062 185.726562 103.421875 188.222656 100.714844 190.042969 L 100.007812 190.523438 L 100.960938 191.9375 L 101.667969 191.460938 C 104.996094 189.25 108.160156 186.082031 111.257812 181.890625 C 111.839844 181.304688 112.320312 180.632812 112.691406 179.890625 L 117.519531 170.234375 C 117.75 169.773438 118.171875 169.453125 118.6875 169.382812 C 119.199219 169.3125 119.695312 169.472656 120.046875 169.824219 C 120.457031 170.269531 120.597656 170.871094 120.4375 171.433594 Z M 120.4375 171.433594 " fill-opacity="1" fill-rule="nonzero"/></g><g clip-path="url(#ac67d83d42)"><path fill="#a0a8ff" d="M 80.265625 190.699219 C 79.964844 188.273438 78.515625 186.117188 76.269531 184.878906 C 72.925781 183.570312 70.289062 182.101562 68.253906 180.421875 C 65.671875 178.988281 62.472656 179.308594 60.207031 181.128906 C 60.101562 180.988281 59.996094 180.863281 59.890625 180.722656 C 59.429688 180.261719 59.058594 179.75 58.773438 179.164062 L 53.945312 169.507812 C 53.46875 168.550781 52.582031 167.898438 51.539062 167.738281 C 50.476562 167.5625 49.433594 167.898438 48.691406 168.660156 C 47.84375 169.507812 47.523438 170.761719 47.859375 171.929688 L 52.125 186.1875 C 52.441406 187.25 52.972656 188.203125 53.699219 189.035156 L 63.445312 200.179688 L 62.738281 200.179688 L 62.738281 208.722656 L 83.238281 208.722656 L 83.238281 200.179688 L 81.453125 200.179688 Z M 54.988281 187.921875 C 54.421875 187.265625 54.015625 186.523438 53.769531 185.710938 L 49.46875 171.433594 C 49.3125 170.871094 49.453125 170.269531 49.859375 169.859375 C 50.230469 169.488281 50.726562 169.332031 51.238281 169.417969 C 51.75 169.507812 52.175781 169.808594 52.40625 170.269531 L 57.234375 179.925781 C 57.605469 180.667969 58.085938 181.339844 58.597656 181.835938 C 61.78125 186.117188 64.949219 189.285156 68.273438 191.496094 L 68.980469 191.972656 L 69.9375 190.558594 L 69.226562 190.078125 C 66.523438 188.273438 63.921875 185.796875 61.269531 182.472656 C 63.003906 181.074219 65.441406 180.8125 67.316406 181.820312 C 69.351562 183.535156 72.164062 185.109375 75.578125 186.417969 C 77.242188 187.335938 78.375 189.019531 78.605469 190.910156 L 79.753906 200.179688 L 65.742188 200.179688 Z M 81.523438 207.007812 L 64.453125 207.007812 L 64.453125 201.878906 L 81.539062 201.878906 L 81.539062 207.007812 Z M 81.523438 207.007812 " fill-opacity="1" fill-rule="nonzero"/></g><path fill="#a0a8ff" d="M 106.535156 165.828125 C 112.496094 159.867188 112.496094 150.136719 106.535156 144.175781 C 100.589844 138.234375 90.914062 138.214844 84.953125 144.105469 C 78.976562 138.199219 69.316406 138.214844 63.375 144.175781 C 57.414062 150.136719 57.414062 159.867188 63.375 165.828125 L 82.195312 184.667969 C 82.953125 185.425781 83.945312 185.796875 84.953125 185.796875 C 85.960938 185.796875 86.953125 185.425781 87.714844 184.667969 Z M 83.398438 183.464844 L 64.558594 164.625 C 61.992188 162.058594 60.578125 158.644531 60.578125 155.003906 C 60.578125 151.359375 61.992188 147.945312 64.558594 145.378906 C 67.210938 142.726562 70.695312 141.398438 74.179688 141.398438 C 77.667969 141.398438 81.152344 142.726562 83.804688 145.378906 C 84.441406 146.015625 85.46875 146.015625 86.085938 145.378906 C 91.394531 140.074219 100.023438 140.074219 105.332031 145.378906 C 107.894531 147.945312 109.3125 151.359375 109.3125 155.003906 C 109.3125 158.644531 107.894531 162.058594 105.332031 164.625 L 86.492188 183.464844 C 85.660156 184.277344 84.230469 184.277344 83.398438 183.464844 Z M 83.398438 183.464844 " fill-opacity="1" fill-rule="nonzero"/><path fill="#a0a8ff" d="M 88.367188 152.347656 L 81.539062 152.347656 L 81.539062 157.480469 L 76.410156 157.480469 L 76.410156 164.308594 L 81.539062 164.308594 L 81.539062 169.4375 L 88.367188 169.4375 L 88.367188 164.308594 L 93.496094 164.308594 L 93.496094 157.480469 L 88.367188 157.480469 Z M 91.78125 159.175781 L 91.78125 162.589844 L 86.652344 162.589844 L 86.652344 167.722656 L 83.238281 167.722656 L 83.238281 162.589844 L 78.109375 162.589844 L 78.109375 159.175781 L 83.238281 159.175781 L 83.238281 154.046875 L 86.652344 154.046875 L 86.652344 159.175781 Z M 91.78125 159.175781 " fill-opacity="1" fill-rule="nonzero"/><g fill="#a0a8ff" fill-opacity="1"><g transform="translate(124.038176, 196.554011)"><g><path d="M 12.5 -31.796875 L 0.203125 -31.796875 L 0.203125 -35 L 28.5 -35 L 28.5 -31.796875 L 16.203125 -31.796875 L 16.203125 0 L 12.5 0 Z M 12.5 -31.796875 "/></g></g></g><g fill="#a0a8ff" fill-opacity="1"><g transform="translate(152.733731, 196.554011)"><g><path d="M 27.84375 -12.046875 L 5.84375 -12.046875 C 6.050781 -9.316406 7.101562 -7.109375 9 -5.421875 C 10.894531 -3.742188 13.296875 -2.90625 16.203125 -2.90625 C 17.835938 -2.90625 19.335938 -3.195312 20.703125 -3.78125 C 22.066406 -4.363281 23.25 -5.21875 24.25 -6.34375 L 26.25 -4.046875 C 25.082031 -2.648438 23.625 -1.582031 21.875 -0.84375 C 20.125 -0.113281 18.195312 0.25 16.09375 0.25 C 13.394531 0.25 11.003906 -0.320312 8.921875 -1.46875 C 6.835938 -2.625 5.210938 -4.21875 4.046875 -6.25 C 2.878906 -8.28125 2.296875 -10.582031 2.296875 -13.15625 C 2.296875 -15.71875 2.851562 -18.015625 3.96875 -20.046875 C 5.09375 -22.078125 6.628906 -23.660156 8.578125 -24.796875 C 10.523438 -25.929688 12.71875 -26.5 15.15625 -26.5 C 17.582031 -26.5 19.757812 -25.929688 21.6875 -24.796875 C 23.625 -23.660156 25.144531 -22.082031 26.25 -20.0625 C 27.351562 -18.050781 27.90625 -15.75 27.90625 -13.15625 Z M 15.15625 -23.453125 C 12.613281 -23.453125 10.484375 -22.640625 8.765625 -21.015625 C 7.054688 -19.398438 6.082031 -17.296875 5.84375 -14.703125 L 24.5 -14.703125 C 24.269531 -17.296875 23.296875 -19.398438 21.578125 -21.015625 C 19.859375 -22.640625 17.71875 -23.453125 15.15625 -23.453125 Z M 15.15625 -23.453125 "/></g></g></g><g fill="#a0a8ff" fill-opacity="1"><g transform="translate(182.929056, 196.554011)"><g><path d="M 27.65625 -9.34375 L 8.15625 -9.34375 L 3.953125 0 L 0.09375 0 L 16.09375 -35 L 19.75 -35 L 35.75 0 L 31.84375 0 Z M 26.296875 -12.34375 L 17.90625 -31.15625 L 9.5 -12.34375 Z M 26.296875 -12.34375 "/></g></g></g><g fill="#a0a8ff" fill-opacity="1"><g transform="translate(218.773506, 196.554011)"><g><path d="M 12 0.25 C 9.863281 0.25 7.820312 -0.0546875 5.875 -0.671875 C 3.925781 -1.285156 2.398438 -2.0625 1.296875 -3 L 2.90625 -5.796875 C 4 -4.929688 5.378906 -4.222656 7.046875 -3.671875 C 8.710938 -3.117188 10.445312 -2.84375 12.25 -2.84375 C 14.644531 -2.84375 16.414062 -3.21875 17.5625 -3.96875 C 18.71875 -4.71875 19.296875 -5.78125 19.296875 -7.15625 C 19.296875 -8.113281 18.976562 -8.867188 18.34375 -9.421875 C 17.71875 -9.972656 16.921875 -10.390625 15.953125 -10.671875 C 14.984375 -10.953125 13.695312 -11.226562 12.09375 -11.5 C 9.96875 -11.894531 8.253906 -12.300781 6.953125 -12.71875 C 5.648438 -13.132812 4.539062 -13.84375 3.625 -14.84375 C 2.707031 -15.84375 2.25 -17.226562 2.25 -19 C 2.25 -21.195312 3.164062 -22.992188 5 -24.390625 C 6.832031 -25.796875 9.382812 -26.5 12.65625 -26.5 C 14.351562 -26.5 16.050781 -26.273438 17.75 -25.828125 C 19.445312 -25.378906 20.847656 -24.785156 21.953125 -24.046875 L 20.40625 -21.203125 C 18.238281 -22.703125 15.65625 -23.453125 12.65625 -23.453125 C 10.382812 -23.453125 8.671875 -23.050781 7.515625 -22.25 C 6.367188 -21.445312 5.796875 -20.394531 5.796875 -19.09375 C 5.796875 -18.09375 6.117188 -17.289062 6.765625 -16.6875 C 7.421875 -16.09375 8.234375 -15.65625 9.203125 -15.375 C 10.171875 -15.09375 11.503906 -14.800781 13.203125 -14.5 C 15.296875 -14.101562 16.976562 -13.703125 18.25 -13.296875 C 19.519531 -12.898438 20.601562 -12.21875 21.5 -11.25 C 22.394531 -10.28125 22.84375 -8.945312 22.84375 -7.25 C 22.84375 -4.945312 21.882812 -3.117188 19.96875 -1.765625 C 18.050781 -0.421875 15.394531 0.25 12 0.25 Z M 12 0.25 "/></g></g></g><g fill="#a0a8ff" fill-opacity="1"><g transform="translate(243.219721, 196.554011)"><g><path d="M 12 0.25 C 9.863281 0.25 7.820312 -0.0546875 5.875 -0.671875 C 3.925781 -1.285156 2.398438 -2.0625 1.296875 -3 L 2.90625 -5.796875 C 4 -4.929688 5.378906 -4.222656 7.046875 -3.671875 C 8.710938 -3.117188 10.445312 -2.84375 12.25 -2.84375 C 14.644531 -2.84375 16.414062 -3.21875 17.5625 -3.96875 C 18.71875 -4.71875 19.296875 -5.78125 19.296875 -7.15625 C 19.296875 -8.113281 18.976562 -8.867188 18.34375 -9.421875 C 17.71875 -9.972656 16.921875 -10.390625 15.953125 -10.671875 C 14.984375 -10.953125 13.695312 -11.226562 12.09375 -11.5 C 9.96875 -11.894531 8.253906 -12.300781 6.953125 -12.71875 C 5.648438 -13.132812 4.539062 -13.84375 3.625 -14.84375 C 2.707031 -15.84375 2.25 -17.226562 2.25 -19 C 2.25 -21.195312 3.164062 -22.992188 5 -24.390625 C 6.832031 -25.796875 9.382812 -26.5 12.65625 -26.5 C 14.351562 -26.5 16.050781 -26.273438 17.75 -25.828125 C 19.445312 -25.378906 20.847656 -24.785156 21.953125 -24.046875 L 20.40625 -21.203125 C 18.238281 -22.703125 15.65625 -23.453125 12.65625 -23.453125 C 10.382812 -23.453125 8.671875 -23.050781 7.515625 -22.25 C 6.367188 -21.445312 5.796875 -20.394531 5.796875 -19.09375 C 5.796875 -18.09375 6.117188 -17.289062 6.765625 -16.6875 C 7.421875 -16.09375 8.234375 -15.65625 9.203125 -15.375 C 10.171875 -15.09375 11.503906 -14.800781 13.203125 -14.5 C 15.296875 -14.101562 16.976562 -13.703125 18.25 -13.296875 C 19.519531 -12.898438 20.601562 -12.21875 21.5 -11.25 C 22.394531 -10.28125 22.84375 -8.945312 22.84375 -7.25 C 22.84375 -4.945312 21.882812 -3.117188 19.96875 -1.765625 C 18.050781 -0.421875 15.394531 0.25 12 0.25 Z M 12 0.25 "/></g></g></g><g fill="#a0a8ff" fill-opacity="1"><g transform="translate(267.665935, 196.554011)"><g><path d="M 4.953125 -26.296875 L 8.5 -26.296875 L 8.5 0 L 4.953125 0 Z M 6.75 -32.046875 C 6.019531 -32.046875 5.40625 -32.296875 4.90625 -32.796875 C 4.40625 -33.296875 4.15625 -33.894531 4.15625 -34.59375 C 4.15625 -35.257812 4.40625 -35.84375 4.90625 -36.34375 C 5.40625 -36.84375 6.019531 -37.09375 6.75 -37.09375 C 7.476562 -37.09375 8.09375 -36.851562 8.59375 -36.375 C 9.09375 -35.894531 9.34375 -35.320312 9.34375 -34.65625 C 9.34375 -33.914062 9.09375 -33.296875 8.59375 -32.796875 C 8.09375 -32.296875 7.476562 -32.046875 6.75 -32.046875 Z M 6.75 -32.046875 "/></g></g></g><g fill="#a0a8ff" fill-opacity="1"><g transform="translate(281.113852, 196.554011)"><g><path d="M 12 0.25 C 9.863281 0.25 7.820312 -0.0546875 5.875 -0.671875 C 3.925781 -1.285156 2.398438 -2.0625 1.296875 -3 L 2.90625 -5.796875 C 4 -4.929688 5.378906 -4.222656 7.046875 -3.671875 C 8.710938 -3.117188 10.445312 -2.84375 12.25 -2.84375 C 14.644531 -2.84375 16.414062 -3.21875 17.5625 -3.96875 C 18.71875 -4.71875 19.296875 -5.78125 19.296875 -7.15625 C 19.296875 -8.113281 18.976562 -8.867188 18.34375 -9.421875 C 17.71875 -9.972656 16.921875 -10.390625 15.953125 -10.671875 C 14.984375 -10.953125 13.695312 -11.226562 12.09375 -11.5 C 9.96875 -11.894531 8.253906 -12.300781 6.953125 -12.71875 C 5.648438 -13.132812 4.539062 -13.84375 3.625 -14.84375 C 2.707031 -15.84375 2.25 -17.226562 2.25 -19 C 2.25 -21.195312 3.164062 -22.992188 5 -24.390625 C 6.832031 -25.796875 9.382812 -26.5 12.65625 -26.5 C 14.351562 -26.5 16.050781 -26.273438 17.75 -25.828125 C 19.445312 -25.378906 20.847656 -24.785156 21.953125 -24.046875 L 20.40625 -21.203125 C 18.238281 -22.703125 15.65625 -23.453125 12.65625 -23.453125 C 10.382812 -23.453125 8.671875 -23.050781 7.515625 -22.25 C 6.367188 -21.445312 5.796875 -20.394531 5.796875 -19.09375 C 5.796875 -18.09375 6.117188 -17.289062 6.765625 -16.6875 C 7.421875 -16.09375 8.234375 -15.65625 9.203125 -15.375 C 10.171875 -15.09375 11.503906 -14.800781 13.203125 -14.5 C 15.296875 -14.101562 16.976562 -13.703125 18.25 -13.296875 C 19.519531 -12.898438 20.601562 -12.21875 21.5 -11.25 C 22.394531 -10.28125 22.84375 -8.945312 22.84375 -7.25 C 22.84375 -4.945312 21.882812 -3.117188 19.96875 -1.765625 C 18.050781 -0.421875 15.394531 0.25 12 0.25 Z M 12 0.25 "/></g></g></g><g fill="#a0a8ff" fill-opacity="1"><g transform="translate(305.560067, 196.554011)"><g><path d="M 18.796875 -1.59375 C 18.128906 -1 17.300781 -0.539062 16.3125 -0.21875 C 15.332031 0.09375 14.3125 0.25 13.25 0.25 C 10.78125 0.25 8.878906 -0.414062 7.546875 -1.75 C 6.210938 -3.082031 5.546875 -4.96875 5.546875 -7.40625 L 5.546875 -23.296875 L 0.84375 -23.296875 L 0.84375 -26.296875 L 5.546875 -26.296875 L 5.546875 -32.046875 L 9.09375 -32.046875 L 9.09375 -26.296875 L 17.09375 -26.296875 L 17.09375 -23.296875 L 9.09375 -23.296875 L 9.09375 -7.59375 C 9.09375 -6.03125 9.484375 -4.835938 10.265625 -4.015625 C 11.054688 -3.203125 12.1875 -2.796875 13.65625 -2.796875 C 14.382812 -2.796875 15.085938 -2.910156 15.765625 -3.140625 C 16.453125 -3.378906 17.046875 -3.71875 17.546875 -4.15625 Z M 18.796875 -1.59375 "/></g></g></g></svg>